<svg width="11" height="11" viewBox="0 0 24 24" fill="none" xmlns="http://www.w3.org/2000/svg">
    <path
        d="M13.033 16.54C13.6965 16.7826 14.2532 17.2514 14.605 17.864C14.9568 18.4766 15.0813 19.1937 14.9564 19.889C14.8315 20.5844 14.4653 21.2133 13.9223 21.6652C13.3793 22.1171 12.6943 22.363 11.9879 22.3595C11.2814 22.356 10.5989 22.1035 10.0603 21.6462C9.52182 21.189 9.16185 20.5565 9.04382 19.8599C8.92579 19.1634 9.05727 18.4476 9.4151 17.8385C9.77293 17.2294 10.3342 16.766 11 16.53V15.483C11 15.409 11.003 15.335 11.008 15.262C10.9782 15.1299 10.9219 15.0053 10.8425 14.8956C10.7631 14.7859 10.6622 14.6935 10.546 14.624L7.46003 12.777C7.01493 12.5108 6.64646 12.1337 6.39057 11.6825C6.13469 11.2314 6.00013 10.7216 6.00003 10.203V8.18699C5.33254 7.95109 4.76994 7.4868 4.41167 6.87619C4.0534 6.26558 3.92254 5.54797 4.04222 4.85021C4.16189 4.15244 4.5244 3.51945 5.06566 3.06312C5.60692 2.60679 6.29208 2.35651 7.00003 2.35651C7.70798 2.35651 8.39314 2.60679 8.9344 3.06312C9.47566 3.51945 9.83817 4.15244 9.95784 4.85021C10.0775 5.54797 9.94666 6.26558 9.58839 6.87619C9.23012 7.4868 8.66752 7.95109 8.00003 8.18699V10.203C8.0001 10.3759 8.045 10.5459 8.13036 10.6962C8.21571 10.8466 8.3386 10.9723 8.48703 11.061L11.573 12.907C11.7303 13.0012 11.8786 13.1097 12.016 13.231C12.1538 13.1096 12.3024 13.0012 12.46 12.907L15.546 11.061C15.6945 10.9723 15.8173 10.8466 15.9027 10.6962C15.9881 10.5459 16.033 10.3759 16.033 10.203V8.19899C15.3607 7.96941 14.7916 7.50874 14.427 6.89894C14.0624 6.28914 13.926 5.56977 14.0421 4.86884C14.1581 4.16791 14.5191 3.53088 15.0607 3.07111C15.6024 2.61133 16.2896 2.35864 17 2.35799C17.7049 2.3577 18.3874 2.60563 18.9278 3.05829C19.4681 3.51094 19.8318 4.13942 19.9551 4.83345C20.0783 5.52749 19.9532 6.24276 19.6018 6.85379C19.2503 7.46481 18.6949 7.93257 18.033 8.17499V10.203C18.0329 10.7216 17.8984 11.2314 17.6425 11.6825C17.3866 12.1337 17.0181 12.5108 16.573 12.777L13.487 14.623C13.3708 14.6925 13.27 14.7849 13.1906 14.8946C13.1111 15.0043 13.0548 15.1289 13.025 15.261C13.03 15.334 13.033 15.408 13.033 15.481V16.541V16.54Z"
        fill="#28669c" />
</svg>