<svg width="11" height="11" viewBox="0 0 84 79" fill="none" xmlns="http://www.w3.org/2000/svg">
    <path
        d="M38.2065 3.34487C39.4243 -0.297134 44.5757 -0.297133 45.7935 3.34487L52.9859 24.8541C53.5314 26.4856 55.0591 27.5856 56.7794 27.5856H79.8045C83.7072 27.5856 85.2997 32.6025 82.1115 34.8533L63.6832 47.8633C62.2408 48.8816 61.6367 50.7251 62.1966 52.3996L69.2819 73.5887C70.5075 77.2538 66.3385 80.3538 63.1814 78.1249L44.3069 64.7999C42.9239 63.8235 41.0761 63.8235 39.6931 64.7999L20.8186 78.1249C17.6615 80.3538 13.4925 77.2538 14.7181 73.5887L21.8034 52.3996C22.3633 50.7251 21.7592 48.8816 20.3168 47.8633L1.88852 34.8533C-1.29968 32.6025 0.292818 27.5856 4.19547 27.5856H27.2206C28.9409 27.5856 30.4686 26.4857 31.0141 24.8541L38.2065 3.34487Z"
        fill="#28669c" />
</svg>